<svg xmlns="http://www.w3.org/2000/svg" width="256" height="256"><path fill-opacity=".016" d="M0 128.004v128.004l128.25-.254 128.25-.254.254-127.75L257.008 0H0v128.004m.485.496c0 70.4.119 99.053.265 63.672.146-35.38.146-92.98 0-128C.604 29.153.485 58.1.485 128.5" fill="#212121" fill-rule="evenodd"/><path fill-opacity=".326" d="M38.821 59.373C29.807 61.842 21.967 70.154 20 79.324c-.759 3.539-1.013 22.411-.805 59.676l.305 54.5 98.5-.28 98.5-.281 5.23-2.533c2.876-1.393 6.576-4.167 8.222-6.164 6.075-7.371 6.048-7.056 6.048-69.329V58.182l-96.25-.045c-75.302-.036-97.268.233-100.929 1.236" fill="#212121" fill-rule="evenodd"/><path fill-opacity=".249" d="M37.453 60.326c-8.181 3.152-14.346 9.415-16.5 16.761-.621 2.119-.955 24.606-.882 59.307l.118 55.893 17.155-.699c22.041-.898 20.768-.748 19.478-2.302-.757-.912-.755-1.286.006-1.286.59 0 1.573.787 2.185 1.75.921 1.447 1.009 1.26.51-1.084-.391-1.839-.238-2.608.437-2.191.572.354 1.04.166 1.04-.416S61.702 185 62.559 185c.957 0 1.286.483.853 1.25-.388.688.26.256 1.441-.958 1.181-1.215 2.147-2.933 2.147-3.818 0-1.154.566-1.429 2-.974 1.398.444 2.038.163 2.125-.933.234-2.937.375-3.4 1.285-4.234.521-.476.63-.343.256.312-.36.63-.005 1.395.789 1.699.916.352 1.258.072.937-.766-.279-.726.222-1.6 1.114-1.942.891-.342 1.339-1.079.994-1.637s.077-1.719.939-2.581c1.422-1.422 1.623-1.419 2.181.033.475 1.238.927 1.34 1.997.452.761-.631 1.383-1.575 1.383-2.097s.762-1.704 1.694-2.627c1.586-1.572 1.652-1.568 1.031.071-.803 2.121-.079 2.247 1.846.321 1.638-1.637 1.918-2.991.429-2.071-.55.34-1 .141-1-.441S87.675 163 88.5 163s1.5-.675 1.5-1.5.52-1.5 1.155-1.5c.642 0 .31-.961-.75-2.166-1.048-1.191 1.633.625 5.957 4.037 4.323 3.411 9.498 7.036 11.5 8.055 17.276 8.799 39.061 5.897 53.185-7.085 1.401-1.287 1.872-1.891 1.047-1.341-.963.642-.801.048.453-1.657 1.074-1.461 2.382-2.586 2.906-2.5.525.086.975-.743 1-1.843.026-1.1.609-1.888 1.297-1.75.687.137 1.137-.096 1-.519-.138-.423.718-1.811 1.901-3.083 1.183-1.272 3.15-5.418 4.37-9.214 1.845-5.737 2.14-8.463 1.75-16.167-.552-10.926-2.922-17.857-8.708-25.464-2.174-2.859-3.343-4.964-2.598-4.678.783.301 1.631-.353 2.012-1.552.529-1.666 1.023-1.876 2.529-1.07 1.262.676 2.08.667 2.508-.025.349-.565.264-.963-.19-.884-2.019.351-2.185-.234-.592-2.094.942-1.1 2.314-2 3.049-2 .735 0 1.088-.403.784-.895-.876-1.417 2.054-2.075 3.46-.777.977.903 1.106.885.563-.078-.388-.687-.229-1.25.353-1.25S181 83.283 181 82.406c0-.876.895-1.827 1.989-2.113 1.094-.286 1.772-.87 1.508-1.297-.858-1.389 4.106-3.993 5.312-2.787.772.772.92.469.518-1.065-.591-2.262 1.147-3.034 2.011-.894.481 1.192 1.081-1.758.738-3.628-.089-.483.713-.649 1.78-.37 1.538.402 2.073-.143 2.573-2.622.451-2.237.872-2.743 1.476-1.773.589.945 1.052 1.021 1.529.25.376-.609.4-1.107.054-1.107-.347 0 .073-.704.933-1.564.86-.86 2.13-1.244 2.821-.853.968.546.988.418.09-.555-1.813-1.962-36.986-2.942-104.332-2.907-43.079.023-60.341.355-62.547 1.205M87 79.706c-4.61 1.685-9.002 8.274-8.996 13.494.003 2.815 3.123 9.8 4.377 9.8.226 0 1.785-2.138 3.464-4.75 1.68-2.612 5.102-6.756 7.604-9.208C95.952 86.59 98 84.002 98 83.292c0-.711.563-1.308 1.25-1.327.688-.02.125-.679-1.25-1.465-2.493-1.425-8.155-1.834-11-.794m87.813 8.977c.721.289 1.584.253 1.916-.079.332-.332-.258-.568-1.312-.525-1.165.048-1.402.285-.604.604m-94.23 79.183c-.431.697-.513 1.537-.183 1.867.895.895 1.871-.421 1.387-1.871-.338-1.016-.574-1.016-1.204.004M68.5 179c.34.55.816 1 1.059 1s.441-.45.441-1-.477-1-1.059-1-.781.45-.441 1m-3.421 2.583c.048 1.165.285 1.402.604.605.289-.722.253-1.585-.079-1.917-.332-.332-.568.258-.525 1.312" fill="#212121" fill-rule="evenodd"/><path fill-opacity=".299" d="M115.5 78.026c-5.11 1.03-13.599 4.673-13.267 5.693.392 1.205-9.952 16.694-14.768 22.112-.161.182-1.246-.178-2.409-.801-1.892-1.012-2.267-.77-3.546 2.293-2.583 6.181-3.641 16.081-2.503 23.427 2.52 16.273 15.798 32.683 30.421 37.595 7.459 2.505 11.994 2.219 13.39-.845.627-1.375 1.599-2.5 2.161-2.5.561 0 1.021-.675 1.021-1.5s.406-1.5.902-1.5 1.373-1.35 1.948-3 1.519-3 2.098-3 1.052-.567 1.052-1.26c0-.693 1.125-2.474 2.5-3.957 1.375-1.482 2.508-3.053 2.517-3.489.01-.437 1.152-1.87 2.538-3.186 1.387-1.315 4.81-5.702 7.608-9.75 2.798-4.047 5.405-7.358 5.793-7.358.388 0 1.32-1.237 2.071-2.75.751-1.513 3.031-4.802 5.068-7.309 2.036-2.508 4.575-5.994 5.641-7.747 1.066-1.753 2.264-2.86 2.663-2.461 1.486 1.485-1.629-5.392-4.409-9.736-3.35-5.234-9.999-10.555-18.49-14.795-9.607-4.797-19.849-6.223-30-4.176" fill="#212121" fill-rule="evenodd"/></svg>